<svg xmlns="http://www.w3.org/2000/svg" xmlns:xlink="http://www.w3.org/1999/xlink" width="500" zoomAndPan="magnify" viewBox="0 0 375 374.999991" height="500" preserveAspectRatio="xMidYMid meet" version="1.0"><defs><clipPath id="fe7f1f3ffd"><path d="M 25.402344 182.9375 L 329.78125 182.9375 L 329.78125 265.210938 L 25.402344 265.210938 Z M 25.402344 182.9375 " clip-rule="nonzero"/></clipPath><clipPath id="519f7a57be"><path d="M 106.09375 84.226562 L 217.453125 84.226562 L 217.453125 176.277344 L 106.09375 176.277344 Z M 106.09375 84.226562 " clip-rule="nonzero"/></clipPath></defs><g clip-path="url(#fe7f1f3ffd)"><path fill="#000000" d="M 56.722656 208.792969 C 57.726562 205.585938 59.652344 203.015625 62.496094 201.078125 C 65.339844 199.140625 68.804688 198.171875 72.886719 198.171875 C 76.96875 198.171875 80.546875 199.640625 83.628906 202.582031 C 86.707031 205.519531 88.246094 209.496094 88.246094 214.503906 L 88.246094 244.367188 L 85.03125 244.367188 L 85.03125 214.503906 C 85.03125 210.628906 83.761719 207.40625 81.21875 204.835938 C 78.675781 202.261719 75.613281 200.976562 72.03125 200.976562 C 68.453125 200.976562 65.273438 202.3125 62.496094 204.984375 C 59.71875 207.65625 58.328125 210.765625 58.328125 214.304688 L 58.328125 244.367188 L 55.117188 244.367188 L 55.117188 214.304688 C 55.117188 210.699219 53.84375 207.574219 51.300781 204.933594 C 48.757812 202.296875 45.679688 200.976562 42.066406 200.976562 C 38.453125 200.976562 35.308594 202.3125 32.628906 204.984375 C 29.953125 207.65625 28.613281 210.765625 28.613281 214.304688 L 28.613281 244.367188 L 25.402344 244.367188 L 25.402344 199.273438 L 28.613281 199.273438 L 28.613281 205.585938 C 29.953125 203.582031 31.945312 201.84375 34.585938 200.375 C 37.230469 198.90625 39.976562 198.171875 42.820312 198.171875 C 45.664062 198.171875 48.390625 199.15625 51 201.128906 C 53.609375 203.097656 55.519531 205.652344 56.722656 208.792969 Z M 142.152344 199.273438 L 145.367188 199.273438 L 145.367188 244.367188 L 142.152344 244.367188 L 142.152344 233.144531 C 140.28125 236.953125 137.46875 239.957031 133.722656 242.164062 C 129.972656 244.367188 125.957031 245.46875 121.675781 245.46875 C 115.117188 245.46875 109.496094 243.148438 104.808594 238.503906 C 100.125 233.863281 97.78125 228.300781 97.78125 221.820312 C 97.78125 215.339844 100.125 209.777344 104.808594 205.136719 C 109.496094 200.492188 115.117188 198.171875 121.675781 198.171875 C 125.957031 198.171875 130.058594 199.308594 133.972656 201.578125 C 137.886719 203.851562 140.613281 206.855469 142.152344 210.597656 Z M 100.996094 221.921875 C 100.996094 227.53125 103.050781 232.394531 107.167969 236.5 C 111.285156 240.609375 116.171875 242.664062 121.824219 242.664062 C 127.480469 242.664062 132.316406 240.609375 136.332031 236.5 C 140.347656 232.394531 142.355469 227.515625 142.355469 221.871094 C 142.355469 216.226562 140.332031 211.332031 136.28125 207.191406 C 132.230469 203.046875 127.398438 200.976562 121.773438 200.976562 C 116.152344 200.976562 111.285156 203.066406 107.167969 207.238281 C 103.050781 211.414062 100.996094 216.308594 100.996094 221.921875 Z M 199.375 210.496094 L 199.375 199.273438 L 202.589844 199.273438 L 202.589844 240.160156 C 202.589844 247.910156 200.445312 254.019531 196.164062 258.496094 C 191.878906 262.972656 186.257812 265.210938 179.296875 265.210938 C 175.484375 265.210938 171.769531 264.34375 168.15625 262.605469 C 164.539062 260.867188 161.730469 258.597656 159.722656 255.792969 L 159.722656 251.183594 C 161.460938 254.386719 164.191406 257.0625 167.902344 259.199219 C 171.617188 261.335938 175.417969 262.40625 179.296875 262.40625 C 185.1875 262.40625 190.007812 260.417969 193.753906 256.441406 C 197.503906 252.46875 199.375 247.039062 199.375 240.160156 L 199.375 233.445312 C 197.570312 237.121094 194.722656 240.058594 190.84375 242.261719 C 186.960938 244.46875 182.945312 245.570312 178.796875 245.570312 C 172.238281 245.570312 166.617188 243.25 161.929688 238.605469 C 157.246094 233.960938 154.902344 228.402344 154.902344 221.921875 C 154.902344 215.441406 157.246094 209.878906 161.929688 205.234375 C 166.617188 200.59375 172.238281 198.269531 178.796875 198.269531 C 183.144531 198.269531 187.210938 199.355469 190.992188 201.527344 C 194.773438 203.699219 197.570312 206.6875 199.375 210.496094 Z M 158.117188 221.921875 C 158.117188 227.597656 160.175781 232.492188 164.289062 236.601562 C 168.40625 240.710938 173.292969 242.765625 178.945312 242.765625 C 184.601562 242.765625 189.4375 240.710938 193.453125 236.601562 C 197.46875 232.492188 199.476562 227.597656 199.476562 221.921875 C 199.476562 216.242188 197.46875 211.347656 193.453125 207.238281 C 189.4375 203.132812 184.601562 201.078125 178.945312 201.078125 C 173.292969 201.078125 168.40625 203.132812 164.289062 207.238281 C 160.175781 211.347656 158.117188 216.242188 158.117188 221.921875 Z M 217.847656 264.410156 L 214.636719 264.410156 L 214.636719 199.273438 L 217.847656 199.273438 L 217.847656 210.296875 C 219.65625 206.621094 222.480469 203.683594 226.332031 201.476562 C 230.179688 199.273438 234.175781 198.171875 238.328125 198.171875 C 244.953125 198.171875 250.589844 200.492188 255.242188 205.136719 C 259.894531 209.777344 262.21875 215.339844 262.21875 221.820312 C 262.21875 228.300781 259.894531 233.863281 255.242188 238.503906 C 250.589844 243.148438 244.953125 245.46875 238.328125 245.46875 C 234.3125 245.46875 230.394531 244.382812 226.582031 242.214844 C 222.765625 240.042969 219.855469 237.121094 217.847656 233.445312 Z M 217.648438 221.921875 C 217.648438 227.53125 219.703125 232.394531 223.820312 236.5 C 227.9375 240.609375 232.820312 242.664062 238.476562 242.664062 C 244.132812 242.664062 248.96875 240.609375 252.984375 236.5 C 257 232.394531 259.007812 227.515625 259.007812 221.871094 C 259.007812 216.226562 256.984375 211.332031 252.933594 207.191406 C 248.882812 203.046875 244.050781 200.976562 238.425781 200.976562 C 232.804688 200.976562 227.9375 203.066406 223.820312 207.238281 C 219.703125 211.414062 217.648438 216.308594 217.648438 221.921875 Z M 273.0625 199.375 L 276.273438 199.375 L 276.273438 244.367188 L 273.0625 244.367188 Z M 274.667969 188.351562 C 272.726562 188.351562 271.757812 187.449219 271.757812 185.644531 C 271.757812 183.839844 272.726562 182.9375 274.667969 182.9375 C 276.609375 182.9375 277.578125 183.839844 277.578125 185.644531 C 277.578125 187.449219 276.609375 188.351562 274.667969 188.351562 Z M 312.214844 245.570312 L 311.308594 245.570312 C 304.953125 245.570312 299.414062 243.183594 294.695312 238.40625 C 289.976562 233.628906 287.617188 228.066406 287.617188 221.71875 C 287.617188 215.375 289.960938 209.878906 294.644531 205.234375 C 299.328125 200.59375 305.117188 198.269531 312.011719 198.269531 C 318.90625 198.269531 324.828125 201.011719 329.78125 206.488281 L 298.257812 237.554688 C 302.609375 241.027344 306.792969 242.765625 310.808594 242.765625 C 314.824219 242.765625 318.421875 241.84375 321.601562 240.007812 C 324.777344 238.171875 327.40625 235.714844 329.480469 232.644531 L 329.480469 237.753906 C 324.726562 242.964844 318.972656 245.570312 312.214844 245.570312 Z M 311.160156 201.078125 C 305.839844 201.078125 301.121094 203.132812 297.003906 207.238281 C 292.886719 211.347656 290.832031 216.074219 290.832031 221.417969 C 290.832031 226.765625 292.605469 231.441406 296.152344 235.449219 L 325.363281 206.488281 C 321.214844 202.882812 316.480469 201.078125 311.160156 201.078125 Z M 311.160156 201.078125 " fill-opacity="1" fill-rule="nonzero"/></g><g clip-path="url(#519f7a57be)"><path fill="#000000" d="M 214.128906 87.679688 C 213.511719 88.914062 212.027344 91.875 211.902344 93.605469 C 211.78125 95.332031 213.015625 99.15625 213.511719 100.515625 C 214.003906 101.875 215.613281 110.019531 216.851562 114.585938 C 218.085938 119.273438 217.21875 123.222656 216.109375 129.519531 C 214.746094 137.664062 207.699219 143.464844 207.082031 144.203125 C 206.464844 145.070312 205.226562 147.535156 205.226562 147.535156 L 204.855469 146.796875 C 204.855469 146.796875 204.609375 147.289062 204.113281 147.785156 C 203.742188 148.277344 202.507812 149.019531 202.507812 149.019531 L 202.136719 148.402344 L 200.15625 151.117188 L 199.910156 150.5 L 199.539062 151.734375 L 199.167969 150.746094 C 198.796875 151.238281 198.425781 153.707031 198.796875 154.816406 C 199.167969 155.929688 198.300781 157.285156 198.054688 157.65625 C 197.683594 158.027344 197.1875 158.152344 197.3125 158.519531 C 197.4375 158.890625 202.257812 170 202.878906 170.367188 C 203.496094 170.738281 204.980469 171.109375 205.84375 171.109375 C 206.710938 171.109375 207.699219 170.984375 207.699219 170.984375 C 207.699219 170.984375 209.429688 170.367188 210.296875 171.726562 C 209.679688 171.234375 208.441406 171.847656 208.441406 171.847656 C 208.441406 171.847656 210.542969 171.601562 210.542969 173.332031 C 209.800781 172.589844 208.9375 172.835938 208.9375 172.835938 C 208.9375 172.835938 208.8125 173.207031 208.195312 173.207031 C 207.574219 173.207031 201.515625 173.082031 200.035156 172.835938 C 200.15625 173.332031 201.144531 173.824219 201.886719 173.949219 C 202.628906 174.070312 204.113281 174.195312 205.84375 173.699219 C 207.699219 173.082031 208.195312 174.6875 208.195312 174.6875 C 208.195312 174.6875 207.699219 174.195312 206.464844 174.6875 C 207.824219 174.441406 209.183594 175.304688 208.8125 176.167969 C 207.945312 175.429688 206.957031 175.800781 206.957031 175.800781 C 206.957031 175.800781 206.835938 175.921875 206.464844 176.167969 C 206.09375 176.414062 205.226562 176.167969 203.742188 176.167969 C 202.257812 176.167969 194.59375 175.800781 193.480469 175.800781 C 192.367188 175.800781 192.613281 175.675781 192.242188 174.933594 C 191.625 174.933594 189.894531 175.550781 189.894531 175.550781 C 190.636719 174.070312 192.121094 174.195312 192.121094 174.195312 C 192.121094 174.195312 195.828125 173.949219 196.324219 173.824219 C 196.941406 173.699219 196.941406 173.332031 196.941406 173.332031 C 196.941406 173.332031 195.085938 173.332031 194.714844 173.332031 C 194.34375 173.332031 193.851562 173.453125 192.613281 173.578125 C 193.109375 172.835938 194.097656 172.714844 194.714844 172.589844 C 195.335938 172.464844 196.570312 172.21875 196.820312 172.097656 C 196.941406 171.972656 196.820312 171.480469 196.820312 171.480469 C 196.820312 171.480469 195.210938 165.433594 193.601562 162.71875 C 191.996094 159.878906 191.378906 157.65625 191.253906 156.421875 C 191.128906 155.1875 192.121094 153.585938 192.613281 153.089844 C 192.984375 152.597656 192.863281 152.226562 192.492188 152.226562 C 191.996094 152.226562 191.5 152.351562 191.5 152.351562 C 191.5 152.351562 191.625 151.855469 191.253906 151.734375 C 190.882812 151.609375 190.265625 151.980469 190.265625 151.980469 C 190.265625 151.980469 190.265625 151.363281 189.648438 151.363281 C 189.027344 151.363281 188.285156 151.734375 188.285156 151.734375 C 188.285156 151.734375 188.65625 150.992188 188.285156 150.992188 C 187.914062 150.992188 186.925781 151.238281 186.925781 151.238281 C 186.925781 151.238281 187.050781 150.867188 186.800781 150.867188 C 186.554688 150.746094 186.0625 150.992188 186.0625 150.992188 C 186.0625 150.992188 185.9375 150.621094 185.566406 150.5 C 185.195312 150.375 183.339844 150.128906 179.261719 148.648438 C 175.054688 147.289062 165.410156 147.90625 165.410156 147.90625 C 165.410156 147.90625 164.050781 148.769531 162.9375 149.386719 C 161.824219 150.003906 161.082031 149.882812 161.082031 149.882812 C 161.082031 149.882812 155.023438 152.84375 153.292969 153.707031 C 151.4375 154.570312 150.695312 154.324219 150.695312 154.324219 C 150.695312 154.324219 147.730469 156.421875 146.246094 157.039062 C 144.761719 157.65625 143.523438 157.78125 143.523438 157.78125 C 143.523438 157.78125 139.9375 159.878906 139.074219 160.371094 C 138.207031 160.867188 136.972656 160.988281 136.972656 160.988281 C 136.972656 160.988281 133.878906 162.46875 132.890625 163.085938 C 131.902344 163.582031 131.40625 162.964844 131.40625 162.964844 C 131.40625 162.964844 128.8125 164.816406 127.449219 165.554688 C 126.089844 166.296875 124.976562 165.800781 124.976562 165.800781 C 124.976562 165.800781 124.484375 165.925781 123.863281 166.542969 C 123.246094 167.160156 122.628906 166.789062 122.628906 166.789062 C 122.628906 166.789062 111.625 172.835938 109.890625 173.824219 C 108.160156 174.8125 107.542969 174.316406 106.554688 174.070312 C 105.6875 173.824219 106.183594 172.097656 106.925781 171.726562 C 107.667969 171.355469 152.796875 148.894531 158.488281 146.917969 C 161.082031 144.945312 162.816406 143.21875 166.152344 141.984375 C 169.367188 138.28125 174.683594 133.34375 177.40625 131.246094 C 180.125 129.269531 183.585938 126.308594 188.78125 120.140625 C 193.972656 113.96875 196.199219 113.96875 197.1875 112.363281 C 198.300781 110.757812 197.808594 108.660156 197.4375 106.6875 C 197.1875 104.589844 197.3125 102.984375 197.683594 100.023438 C 198.054688 97.058594 200.28125 95.207031 201.394531 93.726562 C 202.382812 92.246094 205.96875 91.382812 206.585938 90.890625 C 207.203125 90.519531 208.070312 90.148438 208.8125 89.285156 C 209.429688 88.542969 211.78125 84.59375 215.367188 84.226562 C 214.996094 85.828125 214.625 86.691406 214.128906 87.679688 Z M 195.828125 162.222656 C 195.953125 162.59375 198.550781 170.246094 198.921875 171.109375 C 199.292969 171.972656 199.664062 171.355469 200.03125 170.738281 C 200.527344 170.121094 199.414062 168.515625 199.167969 167.652344 C 198.921875 166.667969 195.828125 160.25 195.828125 160.25 C 195.828125 160.25 195.335938 160.25 195.210938 160.617188 C 195.210938 160.867188 195.707031 161.851562 195.828125 162.222656 Z M 191.378906 130.011719 C 194.839844 129.886719 198.054688 129.640625 201.640625 127.914062 C 204.113281 126.679688 207.824219 123.71875 207.824219 123.71875 C 207.824219 123.71875 209.679688 124.828125 206.710938 127.914062 C 199.292969 135.6875 190.511719 136.429688 190.015625 136.921875 C 188.65625 138.035156 185.566406 142.351562 185.9375 145.4375 C 186.183594 147.535156 188.65625 148.648438 192.242188 149.386719 C 196.449219 150.25 200.652344 148.402344 203.125 146.300781 C 205.96875 144.082031 213.015625 137.046875 213.265625 134.207031 C 213.386719 133.34375 210.789062 124.210938 208.9375 120.261719 C 206.957031 116.4375 206.464844 117.054688 201.515625 118.039062 C 196.570312 119.152344 185.9375 127.542969 182.351562 130.136719 C 182.351562 130.136719 183.214844 130.136719 184.578125 130.136719 C 184.824219 130.136719 186.183594 129.886719 186.183594 129.886719 C 186.183594 129.886719 186.0625 130.011719 186.429688 130.011719 C 186.800781 130.011719 187.914062 129.886719 187.914062 129.886719 C 187.914062 129.886719 187.792969 130.011719 188.410156 130.011719 C 188.65625 130.011719 189.648438 129.886719 189.648438 129.886719 C 189.648438 129.886719 189.769531 130.011719 190.015625 130.011719 C 190.265625 130.011719 191.007812 129.886719 191.007812 129.886719 C 191.007812 129.886719 191.007812 130.011719 191.378906 130.011719 Z M 206.832031 95.578125 C 206.214844 95.578125 205.722656 96.074219 205.722656 96.691406 C 205.722656 97.308594 206.214844 97.800781 206.832031 97.800781 C 207.453125 97.800781 207.945312 97.308594 207.945312 96.691406 C 207.824219 96.074219 207.328125 95.578125 206.832031 95.578125 Z M 206.832031 95.578125 " fill-opacity="1" fill-rule="nonzero"/></g></svg>